<svg xmlns="http://www.w3.org/2000/svg" version="1.1" xmlns:xlink="http://www.w3.org/1999/xlink" xmlns:svgjs="http://svgjs.dev/svgjs" width="1000" height="1000" viewBox="0 0 1000 1000"><rect width="1000" height="1000" fill="#000000"></rect><g transform="matrix(0.7,0,0,0.7,149.57575757575756,282.1265587044535)"><svg viewBox="0 0 396 247" data-background-color="#ffffff" preserveAspectRatio="xMidYMid meet" height="623" width="1000" xmlns="http://www.w3.org/2000/svg" xmlns:xlink="http://www.w3.org/1999/xlink"><defs></defs><g id="tight-bounds" transform="matrix(1,0,0,1,0.2400000000000091,-0.09999999999999432)"><svg viewBox="0 0 395.52 247.2" height="247.2" width="395.52"><g><svg></svg></g><g><svg viewBox="0 0 395.52 247.2" height="247.2" width="395.52"><g><path d="M55.039 247.2l38.504-66.691 208.434 0 38.504 66.691zM197.76 0l38.504 66.691-77.008 0z" fill="#010c80" data-fill-palette-color="tertiary"></path></g><g transform="matrix(1,0,0,1,0,82.9508454068019)"><svg viewBox="0 0 395.52 81.29830918639618" height="81.29830918639618" width="395.52"><g><svg viewBox="0 0 520.8733996277393 107.0644384352378" height="81.29830918639618" width="395.52"><g transform="matrix(1,0,0,1,0,14.796894168690613)"><svg viewBox="0 0 395.5199999999999 77.47065009785658" height="77.47065009785658" width="395.5199999999999"><g><svg viewBox="0 0 395.5199999999999 77.47065009785658" height="77.47065009785658" width="395.5199999999999"><g><svg viewBox="0 0 395.5199999999999 77.47065009785658" height="77.47065009785658" width="395.5199999999999"><g transform="matrix(1,0,0,1,0,0)"><svg width="395.5199999999999" viewBox="1.75 -35.20000076293945 181.7428436279297 35.60000228881836" height="77.47065009785658" data-palette-color="#010c80"><path d="M9.85 0L20.95 0 20.95-3 17.2-3 17.2-32 26.4-32 26.4-27.3 29.4-27.3 29.4-35 1.75-35 1.75-27.3 4.75-27.3 4.75-32 14.05-32 14.05-3 9.85-3 9.85 0ZM32.9 0L44 0 44-3 39.95-3 39.95-16.15 60.1-16.15 60.1-3 56.05-3 56.05 0 67.2 0 67.2-3 63.25-3 63.25-32 67.2-32 67.2-35 56.05-35 56.05-32 60.1-32 60.1-19.15 39.95-19.15 39.95-32 44-32 44-35 32.9-35 32.9-32 36.8-32 36.8-3 32.9-3 32.9 0ZM70.7 0L95.75 0 95.75-7.7 92.75-7.7 92.75-3 77.05-3 77.05-16.15 93.1-16.15 93.1-19.15 77.05-19.15 77.05-32 92.05-32 92.05-27.3 95.05-27.3 95.05-35 70.7-35 70.7-32 73.9-32 73.9-3 70.7-3 70.7 0ZM99.24 0L110.34 0 110.34-3 106.59-3 106.59-26.05Q106.59-26.5 106.54-26.95 106.49-27.4 106.49-27.8L106.49-27.8Q106.74-27.35 106.94-27.1 107.14-26.85 107.49-26.4L107.49-26.4 121.74-7.75 135.54-25.7Q135.94-26.25 136.29-26.75 136.64-27.25 137.04-27.8L137.04-27.8Q136.99-27.3 136.97-26.93 136.94-26.55 136.89-26.05L136.89-26.05 136.89-3 133.19-3 133.19 0 144.34 0 144.34-3 140.04-3 140.04-32 144.24-32 144.24-35 138.84-35Q134.54-29.45 130.29-23.9 126.04-18.35 121.74-12.8L121.74-12.8Q117.74-17.95 113.39-23.65 109.04-29.35 104.69-35L104.69-35 99.24-35 99.24-32 103.44-32 103.44-3 99.24-3 99.24 0ZM147.84 0L158.94 0 158.94-3 154.89-3 154.89-32 158.94-32 158.94-35 147.84-35 147.84-32 151.74-32 151.74-3 147.84-3 147.84 0ZM180.44-2.2L180.44-2.2Q181.89-3.5 182.71-5.3 183.54-7.1 183.49-9.35L183.49-9.35Q183.49-12.85 182.16-14.88 180.84-16.9 178.74-17.9L178.74-17.9Q176.49-19 174.04-19.68 171.59-20.35 169.74-21.25L169.74-21.25Q168.29-21.95 167.41-23.03 166.54-24.1 166.54-25.95L166.54-25.95Q166.54-27.15 166.91-28.25 167.29-29.35 168.04-30.25L168.04-30.25Q168.79-31.15 169.99-31.68 171.19-32.2 172.84-32.2L172.84-32.2Q174.59-32.2 175.99-31.83 177.39-31.45 178.34-30.95L178.34-30.95 178.34-27.3 181.34-27.3 181.34-32.45Q180.24-33.35 179.09-33.9 177.94-34.45 176.89-34.75L176.89-34.75Q175.79-35 174.74-35.1 173.69-35.2 172.84-35.2L172.84-35.2Q170.19-35.2 168.36-34.35 166.54-33.5 165.44-32.15L165.44-32.15Q164.29-30.8 163.81-29.15 163.34-27.5 163.39-25.85L163.39-25.85Q163.44-23.05 164.56-21.48 165.69-19.9 167.39-19L167.39-19Q169.04-18.05 171.01-17.5 172.99-16.95 174.79-16.3L174.79-16.3Q176.09-15.75 177.16-15.15 178.24-14.55 179.09-13.55L179.09-13.55Q179.74-12.8 180.04-11.7 180.34-10.6 180.34-9.3L180.34-9.3Q180.34-7.7 179.71-6.45 179.09-5.2 178.04-4.35L178.04-4.35Q176.99-3.5 175.61-3.05 174.24-2.6 172.74-2.6L172.74-2.6Q170.24-2.6 168.34-3.4 166.44-4.2 165.09-5.35L165.09-5.35 165.09-9.8 162.09-9.8 162.09-4.25Q162.69-3.4 163.76-2.58 164.84-1.75 166.24-1.1L166.24-1.1Q167.64-0.45 169.39-0.03 171.14 0.4 173.04 0.4L173.04 0.4Q175.19 0.4 177.09-0.28 178.99-0.95 180.44-2.2Z" opacity="1" transform="matrix(1,0,0,1,0,0)" fill="#ffffff" class="undefined-text-0" data-fill-palette-color="primary" id="text-0"></path></svg></g></svg></g></svg></g></svg></g><g transform="matrix(1,0,0,1,413.8089611925015,0)"><svg viewBox="0 0 107.0644384352378 107.0644384352378" height="107.0644384352378" width="107.0644384352378"><g data-palette-color="#010c80"><rect width="29.264279838965" height="107.0644384352378" fill="#ffffff" stroke="transparent" data-fill-palette-color="accent" x="0" fill-opacity="1"></rect><rect width="29.264279838965" height="107.0644384352378" fill="#ffffff" stroke="transparent" data-fill-palette-color="accent" x="35.688146145079266" fill-opacity="0.75"></rect><rect width="29.264279838965" height="107.0644384352378" fill="#ffffff" stroke="transparent" data-fill-palette-color="accent" x="71.37629229015853" fill-opacity="0.5"></rect></g></svg></g></svg></g></svg></g></svg></g></svg><rect width="395.52" height="247.2" fill="none" stroke="none" visibility="hidden"></rect></g></svg></g></svg>